# Blender 4.5.3 LTS
# www.blender.org
mtllib iss_wt_simplified.mtl
o Cube
v -8.810009 0.441322 20.726921
v -8.822840 -1.224482 20.292793
v -11.021802 -1.907806 18.546181
v -10.883049 -1.422556 18.126434
v -9.756681 -2.031450 18.817213
v -9.875648 -0.818536 18.317122
v -9.535403 -2.108241 17.815189
v -8.428932 -1.965840 19.859512
v -9.911011 1.500430 18.738644
v -9.136450 0.091957 16.257511
v -8.743498 -2.506545 18.527269
v -8.789913 -1.839324 16.819412
v -8.292199 -0.415668 15.936419
v -8.630959 -1.011386 5.963465
v -8.034323 -1.122316 4.432350
v -8.593029 -0.954460 3.692332
v -8.480866 0.096754 0.992792
v -8.472911 -0.660687 -0.025688
v -3.847851 -1.079077 20.577902
v -3.953314 0.322642 20.822790
v -7.396455 -1.765592 16.530718
v -3.881052 -2.247153 19.199995
v -5.407414 -2.491957 17.821224
v -4.368591 0.022181 15.827070
v -3.010648 -1.223501 16.186716
v -7.269403 -1.044425 5.623373
v -6.065817 -1.291967 5.930713
v -6.198711 -0.344509 5.399160
v -6.722939 -1.262597 3.951551
v -5.708073 -0.387531 4.026721
v -4.626837 -1.573861 4.911615
v -4.022494 -0.964774 5.855182
v -4.532913 -1.106811 3.266344
v -6.327915 -0.669387 0.936466
v -5.363192 -0.418995 2.600208
v -5.712681 -1.558874 -0.079481
v -5.009362 -3.195545 1.724366
v -4.606111 -1.930120 2.042659
v -5.030206 -2.747076 0.698258
v -3.503121 -2.713495 1.701094
v -1.870944 0.460713 20.689041
v -2.313766 -1.249305 20.196430
v -0.986573 -1.340414 21.600975
v -0.977856 0.004595 21.723139
v -1.302054 -1.948522 20.272266
v -0.157568 -1.078070 23.044453
v 0.178852 -0.355211 23.015263
v -2.544342 -1.995435 17.412838
v -3.387650 -1.912503 16.805769
v -2.152154 -2.071207 18.731491
v -1.854176 -1.883959 16.235607
v -0.594115 -2.507029 18.712027
v -0.072071 -2.449485 19.885681
v -0.206165 -2.459627 15.387329
v -2.952525 0.187456 15.228930
v -2.514498 0.066415 13.909784
v -2.613724 -0.778448 15.168220
v -1.748370 -1.644199 13.828173
v -1.663458 -0.307630 12.847666
v -0.670092 -1.544514 12.843619
v -1.732134 -1.770064 11.885225
v -0.092873 -2.488065 14.009924
v -2.572999 -0.035664 11.580145
v -2.329820 -1.161544 6.275897
v -2.551425 -0.413939 7.162607
v -0.082445 -2.467644 11.279072
v -2.467652 -1.033718 3.568658
v -2.564410 -0.203424 4.179702
v -1.682191 -1.897444 3.988235
v -2.555419 -8.628130 -0.012712
v -1.806901 -8.888818 1.600347
v -2.064350 -8.837806 -1.204868
v -1.016001 -9.683105 0.507349
v -0.970639 -9.227845 1.867144
v 0.036944 -8.867314 2.448957
v -0.321817 -9.697321 -1.039777
v -3.230862 -3.795234 -0.219335
v -2.579499 -6.661526 0.496253
v -2.861884 -3.378881 0.962546
v -2.818413 -5.043349 -0.032593
v -2.114727 -5.353611 1.560545
v -1.253795 -7.063531 2.218442
v -0.813589 -5.606282 2.500150
v -1.269250 -3.594913 2.452853
v -3.515077 -1.565752 2.151737
v -3.329960 -0.556495 3.015540
v -2.626749 -2.490384 0.721917
v -2.265556 -0.174282 2.608916
v -2.138393 -1.931882 1.478163
v -0.690961 -2.339931 2.694027
v -1.160712 -1.797330 2.257195
v -0.625149 -2.567383 2.070991
v -11.986382 1.381050 18.466286
v -10.967126 2.304829 18.419687
v -10.400541 3.258399 18.678257
v -10.307462 1.724190 17.897011
v -9.619188 2.476334 18.007261
v -9.760737 1.178542 17.477489
v -9.091797 2.377129 18.759060
v -8.581985 1.896694 16.740702
v -8.249660 1.112630 16.076946
v -8.502394 0.806443 -0.220069
v -4.007732 1.454034 20.469103
v -8.202298 1.886935 19.916969
v -7.745139 2.331244 17.454893
v -3.810234 1.659334 16.515324
v -3.804100 2.164205 19.637037
v -3.689116 2.510415 18.261730
v -6.422137 0.851751 0.518967
v -6.041587 1.055248 -0.432886
v -5.078537 0.240984 2.500690
v -5.335649 1.470089 1.525201
v -4.720661 2.870843 1.759551
v -4.906012 2.708095 0.672807
v -4.156835 0.846803 2.342639
v -3.882207 3.042157 1.553754
v 0.086047 0.408729 22.079165
v -0.045901 1.353758 21.243252
v -2.146101 1.798962 19.710049
v -2.070592 1.988051 16.911522
v -2.074467 2.062697 18.298323
v -0.147478 2.548818 18.761333
v -0.058210 2.455902 19.930599
v -0.617637 2.446131 15.442543
v -2.723607 1.291727 15.897359
v -1.767876 1.750342 11.877012
v -1.704806 1.712483 13.801891
v -1.208736 1.103553 12.841166
v -0.057555 1.772675 12.846745
v -2.127141 1.363503 3.907081
v -1.057767 2.417239 6.093636
v -0.250362 2.491951 11.449703
v -0.253856 2.524805 7.605731
v -1.491891 1.979017 3.411040
v -0.041960 3.017097 6.161475
v 0.107418 2.664640 5.119638
v -3.416911 2.573502 0.596998
v -2.695601 1.574268 1.646629
v -2.169164 2.086315 -0.266387
v -2.183303 1.831145 1.169283
v -1.573453 0.980947 2.546068
v -1.138615 2.003352 1.793500
v -0.055368 1.762243 2.550356
v -0.566563 2.547513 0.198604
v -8.634807 0.028579 -0.919107
v -6.583539 -0.931594 -0.488652
v -6.257564 0.014334 -1.189011
v -5.740754 -1.062549 -1.096913
v -4.629112 -3.525947 -0.457796
v -4.920561 -2.655833 -1.679024
v -4.981438 -2.161292 -2.872341
v -5.070221 -0.982786 -2.538451
v -4.164188 -0.491589 -2.632531
v -1.483699 -8.975860 -1.952365
v -0.027800 -8.858333 -2.507803
v -2.568158 -6.995552 -0.482985
v -2.673679 -4.762669 -1.081941
v -1.725775 -4.493578 -2.235453
v -2.124766 -5.739874 -1.600496
v -1.073974 -5.878093 -2.527281
v -0.840185 -3.089510 -2.676881
v 1.025416 -3.339938 -2.699643
v -3.548963 -2.895123 -2.021070
v -3.879481 -2.179291 -2.988513
v -2.776068 -1.216163 -2.777313
v -2.737397 -3.559454 -1.892706
v -2.892483 0.600691 -2.705240
v -2.193024 -2.259392 -1.867973
v -1.718664 0.017170 -3.794416
v -1.618511 -2.021865 -2.965982
v -0.480571 -1.212642 -4.191521
v 0.283116 -2.425169 -3.254482
v -1.475242 -4.488718 -8.176574
v -0.947493 -6.241027 -6.932228
v -1.507936 -3.252796 -7.585472
v -0.711467 -7.077804 -8.310919
v -1.004171 -2.341250 -6.736122
v 0.828825 -6.864027 -6.134549
v 0.005723 -5.120522 -6.259535
v -1.036986 0.567805 -5.010945
v -0.857718 -0.527936 -7.733811
v -0.150132 0.011699 -5.912943
v -0.058921 -0.871289 -5.065426
v 0.495422 -3.409906 -6.065006
v -0.052141 -0.757289 -6.974264
v -0.306754 -6.044863 -9.538712
v -0.020227 -4.674652 -9.546595
v -1.509710 -0.131459 -10.252386
v -1.015136 -1.420793 -9.097256
v -1.212236 0.471189 -9.240549
v -1.153122 -0.823727 -13.748611
v -0.172248 -1.929614 -9.982677
v -0.134129 -1.599727 -10.931906
v -2.116483 0.173397 -15.892807
v -1.668285 -0.547387 -17.656019
v 0.262595 -1.427920 -14.681095
v -0.509236 -1.095246 -16.407564
v 0.257852 -1.082632 -13.347013
v -2.057201 0.478621 -19.293892
v -1.268512 -0.815891 -19.299305
v -1.511589 -0.408607 -19.963299
v -0.063140 -1.410057 -19.070440
v -0.361373 -0.114499 -20.831905
v -0.614562 -4.191511 -21.895895
v -0.720827 -4.148443 -23.345034
v 0.167676 -4.117129 -21.441212
v 0.190920 -4.339357 -23.367542
v -2.618910 -3.602214 -22.667759
v -1.164743 -1.611742 -21.313663
v -1.407305 -2.409926 -22.170490
v -1.476687 -3.557814 -22.690443
v -0.970288 -0.192417 -21.697720
v -0.914989 -1.037521 -23.063929
v -0.081224 -1.297673 -24.278023
v 0.264107 -0.781916 -21.590380
v -1.340131 -0.005682 -25.156334
v -0.772948 -0.576557 -28.690990
v -0.087728 -0.907364 -25.790592
v 0.229036 -0.882446 -27.113823
v -1.948585 -0.272966 -30.527519
v -2.173485 -0.310184 -34.538960
v -0.538775 -1.533886 -30.636593
v -0.034058 -1.446734 -32.879013
v -1.645982 -0.443497 -36.208504
v -1.001584 -1.456697 -34.464237
v 0.094263 -1.463238 -35.930359
v 1.250162 -0.299861 -36.554787
v -5.005156 1.716080 -1.689683
v -4.965906 0.169645 -2.462636
v -3.496442 1.969022 -1.505010
v -2.701827 1.322282 -2.184731
v -2.499667 1.841139 -1.188684
v -1.258425 0.949011 -4.040233
v -1.386844 2.038179 -2.905008
v -0.067930 2.559679 -2.452258
v 0.039320 1.819139 -4.333801
v -1.102595 0.822431 -7.372777
v -0.821356 1.954723 -8.619454
v -0.614052 1.329325 -6.179411
v 0.419799 1.745781 -7.222479
v -1.498762 2.094557 -10.233454
v -1.639905 1.514477 -11.713648
v -1.670137 1.216658 -13.962320
v -1.163533 2.543202 -14.321232
v -0.161438 3.069576 -10.551672
v -0.024845 2.944845 -11.952933
v -2.127790 1.479952 -16.082783
v -1.430605 2.514899 -16.086454
v -0.078178 3.081347 -13.898476
v 0.249574 2.675655 -15.298453
v -0.083968 2.650127 -16.376793
v -2.029763 1.325304 -17.695927
v -1.945815 1.555905 -19.356405
v -1.454010 2.519168 -19.253248
v -0.826579 1.362702 -20.817554
v -0.054314 3.007590 -19.015949
v -0.061944 3.083130 -17.893137
v -0.094555 2.359087 -20.208710
v -1.429573 0.637990 -22.718002
v -1.359599 1.541642 -25.103420
v -0.746532 2.332437 -22.034956
v -1.033575 1.056514 -23.675358
v -0.963408 4.488972 -23.453112
v -0.890544 5.389280 -21.999231
v -0.445833 2.742443 -23.699951
v 0.017763 3.326259 -24.089941
v -0.019176 2.544329 -24.570601
v -1.303758 5.873034 -22.788319
v -0.896263 5.653986 -24.055244
v -0.292982 6.036985 -21.537222
v 0.000658 6.171108 -23.094425
v -1.594182 0.907386 -28.520615
v -0.848162 2.242821 -28.569984
v 0.091843 2.468818 -27.279608
v -1.822862 2.244148 -30.498161
v -2.042921 2.169883 -32.752289
v -2.541987 0.848769 -34.283058
v -1.034479 3.045200 -34.200493
v -0.357146 3.090730 -30.543076
v -1.904907 2.069946 -35.877064
v -2.226640 0.836448 -35.771656
v -0.547708 2.962116 -36.408024
v -0.057909 4.655950 -37.099045
v -0.097286 6.033874 -37.128761
v 0.423180 -1.480244 21.127169
v 0.786260 -1.357117 22.041040
v 1.140363 0.038149 21.309559
v 0.945073 -1.983745 20.516285
v 1.850889 0.169311 20.651035
v 1.958290 -1.397370 20.258574
v 3.492578 -1.192287 20.405994
v 0.486856 -2.509354 18.724483
v 1.806359 -2.005079 19.557049
v 1.964523 -1.997578 16.699955
v 3.261166 -2.501059 18.743938
v 1.873603 -2.085634 18.453773
v 3.882784 -2.395113 17.655058
v 0.719754 -1.395888 12.857205
v 1.671996 -1.702638 11.915279
v 1.575229 -1.685614 13.787123
v 1.708917 0.015777 12.838816
v 2.289047 -1.501429 15.716079
v 2.754498 -0.071405 15.191296
v 2.405876 0.008751 13.950768
v 3.544020 -1.162104 16.139761
v 4.308483 -0.032545 15.847428
v 1.778428 -1.663939 7.047495
v 2.447027 -0.006854 11.528530
v 2.536762 -0.120379 6.829459
v 0.489201 -2.496884 2.993024
v 1.174741 -2.153394 3.392387
v 2.886348 -0.800676 5.789379
v 3.169261 -0.675681 4.908748
v 2.864183 0.050046 5.502641
v 0.372140 -9.674764 1.086013
v 1.642345 -9.030719 1.655012
v 1.084843 -9.689154 0.073213
v 2.386672 -7.447230 2.266005
v 2.849595 -8.205456 0.249084
v 2.262090 -9.111277 -0.118479
v 2.380581 -5.140802 2.471670
v 2.701727 -4.362508 1.687550
v 2.790786 -7.639957 -0.660343
v 2.751480 -3.090463 -0.583548
v 0.973725 -1.694600 2.403406
v 2.008256 -3.563910 2.478906
v 2.035307 -0.154778 2.305520
v 2.119423 -1.816955 1.596031
v 2.494074 -2.151039 0.781196
v 2.532202 -0.939052 3.476766
v 2.727348 -0.349146 3.244902
v 2.798824 -3.426857 0.614324
v 3.459464 -1.686809 1.753773
v 3.479853 -0.809678 2.461639
v 3.403446 -2.536197 -0.040764
v 8.377184 -2.527312 18.382259
v 11.847387 -2.183367 19.524122
v 10.024023 -2.422089 17.679546
v 13.440790 -0.686596 16.111366
v 7.952104 -3.841199 0.251866
v 5.267834 -1.010659 2.246803
v 4.866072 -2.473385 -0.035769
v 6.588644 -2.267391 1.337675
v 6.058482 -2.771864 -0.012207
v 8.290773 -0.981957 2.300549
v 8.320457 -2.492655 1.365400
v 13.212046 -0.496810 20.683840
v 13.608759 -1.512987 20.153477
v 10.208967 -2.456248 18.904037
v 13.564209 -2.470653 18.261440
v 13.491392 -2.070524 16.963011
v 9.605975 -2.482109 0.643765
v 9.471541 0.003799 2.480335
v 9.748742 -1.667615 1.705508
v 10.705926 -0.515125 1.276091
v 10.766857 -1.580452 0.754159
v 12.688965 -1.033018 0.075119
v 13.957146 0.393528 20.721882
v 16.185978 -1.848256 22.239788
v 15.929122 -1.766143 19.746809
v 16.058424 -1.439037 20.770094
v 16.670359 -2.321379 23.434425
v 14.664660 -1.486273 19.107651
v 14.680141 0.953109 19.844175
v 15.056672 -0.745891 18.134352
v 15.268590 -2.131708 17.842417
v 14.435299 -1.546700 16.971926
v 15.263903 -1.297563 18.950897
v 15.410669 -1.341696 17.657761
v 12.629344 -0.332831 -0.284459
v 16.928181 -1.466843 21.494360
v 16.923372 -2.768386 19.706217
v 17.656645 -2.775529 20.451097
v 18.041780 -1.034209 20.418348
v 17.741758 -2.320213 23.030117
v 18.013451 -2.100224 21.583141
v 19.900257 -2.606307 20.628540
v 19.282610 -1.957207 21.401455
v 20.269287 -2.448088 23.453390
v 20.178043 -1.625534 22.122538
v 20.492907 -2.166492 21.596880
v 20.398167 -1.060969 20.573463
v 17.896393 -1.023286 18.462582
v 17.771381 -1.806283 17.510534
v 17.157053 -0.906180 19.473101
v 17.960480 -2.503673 17.966307
v 18.778107 -2.184596 17.008991
v 20.119843 -2.634140 17.928722
v 19.508341 -2.334194 15.715967
v 20.627354 -1.820592 16.804815
v 20.480564 -1.045610 18.029726
v 20.356554 -2.181791 15.552212
v 21.584885 -2.138904 20.545675
v 22.553268 -1.736468 20.564266
v 23.389692 -2.304836 20.571245
v 21.025558 -2.178686 19.207260
v 21.576466 -2.179563 18.244455
v 20.810465 -1.310219 19.565662
v 23.415503 -2.290025 18.258736
v 1.624010 1.655934 20.206299
v 2.835684 1.698169 20.240292
v 3.376416 0.415768 20.779434
v 1.841285 2.077532 19.120449
v 1.881526 2.090181 17.594385
v 1.606812 2.031122 16.264576
v 2.569501 1.891876 16.634037
v 3.278922 2.561287 18.416466
v 5.854364 1.446439 20.424545
v 3.562371 2.186742 19.639967
v 0.046331 2.534141 14.087029
v 1.634578 1.650548 13.799277
v 1.031761 1.164845 12.841200
v 1.673142 1.726799 11.883442
v 2.134516 1.492631 15.469616
v 3.460994 0.980710 15.898711
v 1.131510 2.227176 7.574640
v 1.892482 1.481055 3.725238
v -0.047975 2.511703 3.665443
v 1.120731 2.335710 6.085998
v 1.348858 1.968683 3.394606
v -0.052734 2.513906 1.476429
v 0.639453 2.519459 -0.055559
v 1.224939 2.056376 1.589022
v 1.269676 1.325975 2.547681
v 2.407653 1.285936 1.687050
v 2.419713 1.672203 -0.021097
v 3.828227 0.304632 2.477230
v 3.594604 1.800253 1.635912
v 3.746116 2.524717 0.167088
v 7.540112 1.262420 20.491735
v 8.214401 2.591771 18.012672
v 7.716474 1.860895 16.694702
v 7.531128 2.168192 19.608675
v 6.204684 0.999559 15.999677
v 8.152576 2.367486 1.009207
v 8.281131 0.528144 2.491542
v 8.309991 1.569153 2.006397
v 5.029620 2.548520 -0.212771
v 10.858772 1.837741 20.266676
v 10.201700 3.814092 20.429146
v 11.407093 3.766573 20.781523
v 13.756879 1.265924 20.556734
v 12.478102 3.401309 20.574343
v 10.513304 5.968181 20.333706
v 11.779859 5.677926 20.709934
v 9.165863 2.695188 19.403774
v 9.046890 3.737134 18.233564
v 9.720613 2.575465 16.797367
v 11.351674 2.220707 16.434612
v 12.143538 2.014526 20.360472
v 12.426700 2.506050 16.407101
v 9.308642 6.049401 19.065979
v 9.234937 5.830514 17.805717
v 9.912077 5.625031 16.582172
v 10.374360 6.383648 19.621670
v 9.965834 6.446247 17.973623
v 11.006464 6.185755 16.106983
v 12.174044 6.246039 16.482529
v 11.688348 6.542902 19.285194
v 13.402122 1.188797 16.028343
v 10.844327 3.325264 16.029814
v 10.690531 4.892006 15.951542
v 11.712705 4.838874 15.828032
v 9.574953 1.676497 1.644074
v 9.477129 2.524582 -0.031763
v 11.511794 0.592031 0.023313
v 12.943714 4.897833 20.494434
v 12.673102 6.063298 20.384871
v 13.362553 2.259899 16.592201
v 13.198379 4.374457 16.356684
v 13.734679 2.561164 19.492905
v 13.439745 5.796531 16.881233
v 14.231616 2.079163 18.688482
v 14.242643 3.544806 18.487398
v 13.930106 2.536056 17.386562
v 13.878635 6.193877 18.541298
v 13.663326 5.661425 19.681768
v 12.302889 3.520153 15.944153
v 1.468210 -9.159774 -1.679650
v 2.236476 -7.604058 -2.475966
v -0.127215 -6.410971 -2.578578
v 1.268486 -4.973429 -2.559085
v 1.848964 -6.059904 -2.289768
v 2.362864 -3.723057 -2.231914
v 2.591254 -5.765449 -1.684213
v 1.722955 -2.216736 -2.504425
v 0.960279 -0.964264 -4.104976
v 1.621022 0.007432 -3.809164
v 2.474906 -1.955965 -0.768746
v 2.745958 -1.375490 -1.947398
v 2.762345 -0.542564 -2.700945
v 3.627383 -1.712051 -1.838752
v 4.346137 0.054756 -2.549026
v 0.859953 -5.421185 -6.752590
v 0.924194 -4.183790 -6.859747
v 1.727027 -6.465691 -7.461473
v 1.158694 -7.078189 -8.231910
v 1.312672 -5.417241 -7.724465
v 1.191661 -4.849870 -8.507091
v 0.511130 0.533142 -6.376450
v 0.977233 0.362870 -4.871329
v 1.425027 -3.113243 -7.434346
v 0.851916 -2.601160 -6.709418
v 0.790936 -0.407199 -7.774829
v 0.796448 -6.419017 -9.916733
v 0.945654 -7.057076 -9.246687
v 0.736368 -5.073115 -9.381234
v 0.905156 -3.447647 -9.912484
v 1.761650 -6.217896 -8.883961
v 0.689587 -0.555185 -9.045505
v 0.724491 -2.284684 -9.758101
v 0.825273 -1.233262 -9.795732
v 1.401439 -3.100615 -8.665943
v 1.414057 -0.462239 -10.672081
v 1.154789 -0.923131 -12.968435
v 1.223861 -0.895598 -15.891357
v 1.484499 -0.408711 -14.444579
v 1.985601 0.092923 -15.928996
v 0.763917 0.339614 -20.866722
v 1.429111 -0.587828 -19.303177
v 1.894760 0.075997 -18.477036
v 1.113938 -4.114993 -22.731129
v 0.918598 -4.039066 -24.180614
v 0.782650 0.271329 -23.987556
v 0.806460 -3.371711 -21.780075
v 1.233456 0.739794 -22.798834
v 0.878469 -0.688482 -22.804930
v 0.640729 -2.272956 -23.632013
v 1.275713 -0.046383 -24.869576
v 0.908900 -0.479681 -26.256788
v 0.892642 -0.647599 -28.948395
v 1.169712 -1.245916 -30.820251
v 1.989674 -0.396622 -31.066330
v 0.867181 -1.457135 -34.475094
v 1.737633 -0.597979 -35.982262
v 8.229915 -0.550730 -2.514717
v 8.136596 -1.493362 -2.114786
v 6.411486 -2.446623 -1.026245
v 7.572851 -3.633998 -0.882300
v 7.825716 -2.415143 -1.490014
v 8.567827 -3.689404 -0.659499
v 9.470486 0.007275 -2.523914
v 9.207397 -2.625647 -0.989236
v 9.669765 -1.540139 -1.859101
v 10.635726 -1.529950 -1.047652
v 10.769776 -0.058269 -1.326139
v 1.235354 2.094531 -2.921566
v 1.035698 1.115793 -4.073210
v 2.614974 1.536920 -1.905966
v 2.917126 0.767842 -2.566657
v 3.462706 2.057673 -1.379601
v 0.265746 1.576148 -6.197364
v 1.364393 0.909338 -8.515104
v 0.407740 2.635546 -9.572725
v 0.811068 1.949510 -8.813949
v 0.792191 2.795945 -12.878132
v 1.302081 2.454357 -10.472124
v 1.676390 1.058750 -9.930506
v 1.509125 1.724715 -11.845330
v 1.569599 1.269158 -13.866847
v 1.135577 2.739054 -14.318857
v 2.028006 1.384590 -15.857100
v 1.598692 2.173215 -17.757523
v 1.283619 2.342188 -19.402325
v 1.170854 2.554585 -16.191385
v 0.613315 1.496061 -21.139027
v 1.928904 1.029630 -17.625235
v 1.915971 1.233070 -19.309822
v 0.654630 2.762688 -21.816689
v 0.459729 2.550005 -23.635681
v 1.058203 3.678896 -21.529198
v 0.950333 2.603721 -22.714010
v 0.851217 1.552178 -24.038780
v 1.388678 3.932133 -22.458206
v 1.231809 1.636236 -25.297499
v 0.701199 5.808942 -21.940514
v 0.750959 5.534719 -23.457294
v 1.406738 5.341591 -22.663858
v 0.547407 2.478451 -28.752316
v 1.516533 0.431688 -28.499187
v 1.376638 1.608945 -28.519106
v 0.247639 3.175919 -35.045719
v 1.064074 2.789645 -30.589613
v 1.041898 3.002041 -34.345612
v 1.966935 0.522918 -29.821926
v 2.039761 1.754498 -30.550867
v 1.983341 2.064599 -32.865089
v 2.243605 0.508719 -31.450346
v 0.351424 2.851521 -36.512482
v 1.695655 1.961995 -36.238766
v 2.215142 0.807014 -35.396446
v 8.330759 1.043346 -2.307692
v 8.363625 2.281285 -1.107697
v 9.586871 1.695953 -1.662180
vn -0.4660 0.1379 0.8740
vn -0.4381 -0.3654 0.8213
vn -0.8812 -0.2696 0.3883
vn -0.8355 0.4556 -0.3073
vn -0.5731 -0.6419 0.5094
vn -0.9893 0.0882 -0.1167
vn -0.4713 -0.7278 -0.4982
vn -0.1710 -0.7512 0.6376
vn -0.8147 -0.0762 0.5749
vn -0.6653 -0.0099 -0.7465
vn -0.1745 -0.9842 0.0295
vn -0.3496 -0.7010 -0.6216
vn -0.2282 -0.1948 -0.9539
vn -0.8763 0.0777 0.4755
vn -0.3241 0.9437 -0.0664
vn 0.1464 0.9828 0.1124
vn -0.6272 0.0614 0.7765
vn -0.6706 -0.7414 0.0240
vn 0.0881 -0.4634 0.8818
vn 0.0389 0.0429 0.9983
vn -0.0649 -0.7108 -0.7004
vn 0.1103 -0.9322 0.3447
vn 0.0328 -0.9819 -0.1866
vn -0.1239 0.0158 -0.9922
vn -0.2585 -0.6827 -0.6834
vn -0.1239 0.9333 0.3372
vn -0.1265 -0.4653 0.8761
vn -0.1234 0.9013 0.4153
vn -0.3206 -0.4164 -0.8508
vn -0.1473 0.8235 -0.5478
vn 0.3533 -0.9352 0.0247
vn 0.7884 0.0947 0.6078
vn -0.2452 -0.6774 0.6935
vn -0.6514 -0.4641 0.6003
vn -0.7211 -0.1781 0.6696
vn -0.7973 -0.5994 -0.0718
vn -0.6422 -0.6208 0.4496
vn -0.4140 -0.5275 0.7419
vn -0.7588 -0.6360 0.1402
vn 0.3135 -0.4697 0.8253
vn -0.3584 0.2578 0.8973
vn -0.2688 -0.6084 0.7467
vn -0.5131 -0.6435 0.5680
vn -0.6607 0.3292 0.6746
vn -0.3362 -0.8499 0.4057
vn -0.2029 -0.4496 0.8699
vn 0.1967 0.3537 0.9145
vn 0.0355 -0.9793 -0.1993
vn 0.1488 -0.8230 -0.5483
vn -0.1157 -0.9824 0.1468
vn -0.4363 -0.8768 -0.2021
vn -0.1659 -0.9844 0.0583
vn -0.0364 -0.9394 0.3410
vn -0.0485 -0.9963 -0.0710
vn -0.7760 0.0626 -0.6276
vn -0.8826 0.0274 -0.4693
vn -0.8204 -0.4648 -0.3331
vn -0.6439 -0.6686 -0.3719
vn -0.9886 -0.1507 -0.0051
vn -0.3300 -0.9436 -0.0245
vn -0.6346 -0.6910 0.3461
vn 0.0085 -0.9676 -0.2525
vn -0.9606 0.0031 0.2779
vn -0.8760 -0.4823 0.0057
vn -0.9825 -0.1859 0.0069
vn 0.0059 -0.9789 0.2040
vn -0.8960 -0.3938 -0.2052
vn -0.9958 0.0710 -0.0585
vn -0.5922 -0.8026 -0.0714
vn -0.8560 -0.5166 0.0208
vn -0.6833 -0.4846 0.5461
vn -0.7658 -0.5393 -0.3503
vn -0.3490 -0.9335 0.0827
vn -0.3095 -0.7085 0.6342
vn -0.0252 -0.4848 0.8743
vn -0.1009 -0.9599 -0.2615
vn -0.7053 -0.7083 0.0298
vn -0.9585 -0.0958 0.2683
vn -0.5153 -0.3846 0.7659
vn -0.9859 -0.1672 0.0103
vn -0.7347 -0.0859 0.6730
vn -0.4943 -0.0769 0.8659
vn -0.3033 -0.0645 0.9507
vn -0.5082 -0.0083 0.8612
vn 0.2790 -0.5523 0.7856
vn 0.2768 -0.0734 0.9581
vn -0.1451 -0.2905 0.9458
vn -0.7715 0.0300 0.6355
vn -0.2867 -0.3556 0.8896
vn -0.6425 -0.5866 0.4930
vn -0.8063 -0.4466 0.3879
vn -0.7990 -0.5871 0.1299
vn -0.3647 0.3590 -0.8591
vn -0.8146 0.2468 -0.5249
vn -0.3348 0.9091 0.2480
vn -0.7856 -0.1556 -0.5988
vn -0.0743 0.8232 -0.5628
vn -0.8159 -0.5577 0.1526
vn -0.0785 0.8724 0.4824
vn -0.2674 0.6702 -0.6924
vn -0.2329 0.3807 -0.8949
vn -0.6432 0.7562 -0.1201
vn 0.0473 0.5568 0.8293
vn -0.2079 0.7199 0.6622
vn -0.0057 0.9488 -0.3159
vn -0.0775 0.7406 -0.6675
vn 0.0840 0.8848 0.4583
vn 0.0903 0.9943 -0.0570
vn -0.4191 0.7738 0.4750
vn -0.5835 0.7600 -0.2861
vn -0.2845 0.3326 0.8991
vn -0.7261 0.4153 0.5480
vn -0.4448 0.6889 0.5723
vn -0.5120 0.8431 -0.1646
vn -0.0529 0.4002 0.9149
vn 0.2951 0.8857 0.3586
vn 0.0589 0.6921 0.7194
vn -0.0510 0.6945 0.7177
vn -0.0651 0.8547 0.5150
vn -0.2058 0.9607 -0.1866
vn 0.0018 0.9983 0.0588
vn -0.0338 0.9985 0.0438
vn -0.0176 0.9237 0.3828
vn -0.2892 0.9553 -0.0614
vn -0.4823 0.7120 -0.5103
vn -0.6749 0.6501 0.3492
vn -0.6171 0.6643 -0.4218
vn -0.8009 0.5982 0.0281
vn 0.0031 0.9999 -0.0167
vn -0.8572 0.4889 -0.1616
vn -0.5427 0.8398 -0.0173
vn -0.0516 0.9760 0.2116
vn -0.0853 0.9866 0.1392
vn -0.5385 0.7553 -0.3735
vn -0.0360 0.9987 -0.0359
vn 0.0737 0.9847 -0.1578
vn 0.3655 0.9230 -0.1208
vn 0.1048 0.7056 0.7009
vn -0.0706 0.9965 -0.0452
vn -0.3067 0.9337 0.1848
vn -0.6848 0.7063 0.1796
vn -0.3011 0.8045 0.5119
vn -0.0286 0.9996 0.0019
vn -0.1671 0.9846 0.0507
vn -0.7123 -0.0258 -0.7014
vn -0.3961 -0.8428 -0.3644
vn -0.5756 0.0721 -0.8145
vn -0.7896 -0.4592 -0.4070
vn -0.4833 -0.8698 -0.0992
vn -0.6275 -0.7111 -0.3170
vn -0.5305 -0.4162 -0.7385
vn -0.6048 0.0880 -0.7915
vn -0.1141 0.1213 -0.9860
vn -0.5241 -0.5585 -0.6429
vn -0.0406 -0.5109 -0.8587
vn -0.9681 -0.0843 -0.2361
vn -0.8755 -0.2422 -0.4182
vn -0.4975 -0.1464 -0.8550
vn -0.7658 -0.1191 -0.6319
vn -0.2905 0.0509 -0.9555
vn -0.2974 -0.3017 -0.9058
vn 0.2184 -0.1358 -0.9664
vn -0.1026 -0.7607 -0.6410
vn 0.0636 -0.4165 -0.9069
vn -0.2002 -0.2486 -0.9477
vn -0.5324 -0.3233 -0.7823
vn -0.4039 0.3372 -0.8504
vn -0.2243 -0.4036 -0.8870
vn -0.6851 -0.0924 -0.7226
vn -0.5242 -0.5701 -0.6326
vn -0.3012 -0.6326 -0.7135
vn 0.1565 -0.5488 -0.8212
vn -0.9697 -0.1188 -0.2133
vn -0.7598 -0.3995 0.5129
vn -0.9824 0.0552 0.1782
vn -0.6005 -0.7843 -0.1558
vn -0.6630 0.2080 0.7191
vn 0.2698 -0.5309 0.8033
vn -0.0585 -0.0227 0.9980
vn -0.8995 0.0726 -0.4308
vn -0.9459 -0.0425 0.3216
vn -0.2546 -0.9499 -0.1814
vn -0.0311 -0.7807 -0.6242
vn 0.3037 0.0366 0.9521
vn 0.0627 -0.1584 0.9854
vn -0.5271 -0.2092 -0.8236
vn -0.1292 -0.0896 -0.9876
vn -0.9558 -0.2807 0.0872
vn -0.9652 -0.1449 -0.2179
vn -0.9733 0.0013 0.2295
vn -0.6926 -0.7192 0.0552
vn -0.3602 -0.5329 -0.7657
vn -0.3753 -0.8998 -0.2225
vn -0.9505 -0.2932 0.1027
vn -0.7472 -0.6641 -0.0259
vn 0.0471 -0.9988 0.0120
vn -0.1866 -0.9824 0.0017
vn -0.0097 -0.9994 0.0342
vn -0.9458 -0.1502 -0.2878
vn -0.5646 -0.7939 -0.2258
vn -0.6584 -0.5539 -0.5095
vn 0.0156 -0.9669 -0.2547
vn -0.3904 -0.9157 -0.0949
vn -0.4606 -0.7620 0.4552
vn -0.5179 -0.6298 -0.5790
vn 0.1651 -0.6178 0.7688
vn 0.1876 -0.7900 -0.5836
vn -0.6384 0.1171 0.7608
vn -0.9989 -0.0331 0.0330
vn -0.9543 -0.1556 -0.2553
vn -0.8596 -0.2023 0.4692
vn -0.9328 -0.0429 -0.3577
vn -0.0656 -0.6932 -0.7178
vn 0.5673 -0.2574 0.7822
vn -0.8918 -0.4260 0.1525
vn -0.5162 -0.8353 0.1894
vn -0.0653 -0.9970 -0.0416
vn 0.1403 -0.9900 -0.0168
vn -0.8804 -0.4401 0.1768
vn -0.6968 -0.7148 -0.0595
vn -0.2859 -0.9499 0.1261
vn -0.1168 -0.9912 0.0627
vn -0.5708 -0.4405 -0.6929
vn -0.4610 -0.8864 -0.0422
vn 0.0023 -0.8517 -0.5239
vn 0.3311 -0.2737 -0.9030
vn -0.4287 0.6849 -0.5891
vn -0.4307 0.2368 -0.8709
vn 0.0417 0.8799 -0.4734
vn -0.2966 0.7561 -0.5833
vn 0.5114 0.7561 -0.4084
vn -0.6768 0.5400 -0.5004
vn -0.4693 0.7830 -0.4083
vn -0.0113 0.9820 -0.1885
vn 0.0227 0.9069 -0.4207
vn -0.9696 0.0508 0.2395
vn -0.6094 0.7187 0.3348
vn -0.8164 0.5685 0.1010
vn 0.4630 0.8292 0.3132
vn -0.8652 0.4563 0.2080
vn -0.9905 0.1376 0.0075
vn -0.9883 0.0921 0.1215
vn -0.7319 0.6792 -0.0549
vn -0.1160 0.9804 0.1594
vn -0.0255 0.9978 -0.0609
vn -0.9567 0.2869 0.0485
vn -0.5623 0.8253 0.0514
vn -0.1003 0.9596 -0.2630
vn -0.0279 0.9992 -0.0297
vn -0.0131 0.9889 0.1483
vn -0.9677 0.2514 -0.0213
vn -0.9030 0.2773 -0.3283
vn -0.6176 0.7308 -0.2907
vn -0.8640 0.4425 -0.2404
vn 0.0428 0.9737 -0.2237
vn 0.0027 1.0000 0.0085
vn -0.0447 0.7978 -0.6013
vn -0.9969 0.0137 -0.0771
vn -0.8871 0.4267 0.1761
vn -0.8554 0.3372 0.3931
vn -0.9886 0.1439 -0.0436
vn -0.9317 -0.1965 -0.3055
vn -0.7697 -0.0472 0.6366
vn -0.8981 0.1185 -0.4236
vn 0.0857 0.1005 -0.9912
vn 0.0108 0.9700 -0.2429
vn -0.8760 0.4779 0.0657
vn -0.4369 0.4123 -0.7995
vn -0.1804 0.6073 0.7737
vn 0.1629 0.9541 -0.2514
vn -0.9862 0.0057 0.1653
vn -0.5515 0.8131 0.1864
vn 0.1973 0.9803 0.0075
vn -0.8224 0.5346 0.1946
vn -0.8358 0.5479 0.0356
vn -0.9986 0.0294 -0.0451
vn -0.3520 0.9351 -0.0407
vn -0.1485 0.9747 0.1670
vn -0.7351 0.4303 -0.5239
vn -0.8531 -0.0089 -0.5217
vn -0.2725 0.4724 -0.8382
vn -0.1494 -0.3362 -0.9299
vn 0.3036 -0.8194 0.4863
vn 0.6713 -0.6893 0.2724
vn 0.7414 0.0987 0.6638
vn 0.2985 -0.7559 0.5827
vn 0.3353 0.0726 0.9393
vn 0.2886 -0.5479 0.7852
vn -0.0145 -0.5227 0.8524
vn 0.1627 -0.9857 0.0438
vn 0.1909 -0.9102 0.3675
vn 0.1956 -0.9543 -0.2260
vn -0.0922 -0.9698 0.2258
vn 0.0048 -1.0000 0.0041
vn -0.0349 -0.9704 -0.2391
vn 0.4452 -0.8949 -0.0309
vn 0.6463 -0.6772 0.3518
vn 0.6119 -0.6836 -0.3979
vn 0.9999 -0.0118 -0.0004
vn 0.6158 -0.6930 -0.3748
vn 0.7479 -0.0485 -0.6621
vn 0.9232 0.0035 -0.3844
vn 0.1855 -0.5415 -0.8200
vn 0.1355 -0.0831 -0.9873
vn 0.7369 -0.6721 0.0726
vn 0.9757 -0.0012 0.2190
vn 0.9819 0.0744 0.1740
vn 0.3136 -0.6745 0.6684
vn 0.5687 -0.7942 -0.2140
vn 0.8975 -0.3441 0.2758
vn 0.9753 -0.2198 -0.0201
vn 0.8637 0.4730 0.1739
vn 0.0996 -0.9510 0.2928
vn 0.4927 -0.7025 0.5135
vn 0.2704 -0.9627 0.0076
vn 0.6828 -0.2226 0.6959
vn 0.9672 -0.2451 0.0662
vn 0.7133 -0.6952 -0.0884
vn 0.5997 -0.0187 0.8000
vn 0.9474 0.1265 0.2939
vn 0.9788 -0.1405 -0.1488
vn 0.9736 -0.0108 -0.2282
vn 0.8752 -0.3295 0.3541
vn 0.6505 0.2027 0.7320
vn 0.8123 -0.0274 0.5826
vn 0.5220 -0.2708 0.8088
vn 0.6467 -0.5567 0.5213
vn 0.7296 -0.5739 -0.3719
vn 0.8974 0.0131 -0.4410
vn 0.9939 0.0400 0.1030
vn -0.0602 -0.7493 0.6595
vn -0.1221 -0.3601 0.9249
vn 0.1259 -0.9910 0.0457
vn 0.0007 -0.9999 -0.0172
vn 0.0466 -0.8482 0.5276
vn 0.0069 -0.9597 -0.2808
vn 0.3694 -0.2082 -0.9056
vn 0.0027 -0.9352 0.3541
vn -0.0016 -0.6718 0.7407
vn -0.0590 -0.9835 0.1709
vn -0.1556 -0.7167 0.6798
vn -0.4019 -0.9143 0.0508
vn 0.0365 -0.3610 0.9319
vn 0.1103 -0.6283 0.7701
vn 0.1024 -0.2227 0.9695
vn 0.3679 -0.5958 0.7139
vn 0.0088 -0.9671 0.2542
vn 0.1743 -0.9799 0.0974
vn 0.1338 -0.7644 -0.6307
vn 0.5569 -0.7778 0.2914
vn 0.3920 0.0363 0.9192
vn 0.4207 -0.5278 0.7378
vn 0.6494 -0.0072 0.7604
vn 0.5586 -0.7098 0.4291
vn 0.9068 -0.3889 0.1629
vn 0.4202 -0.0267 0.9070
vn -0.8322 0.3203 0.4527
vn -0.8136 -0.1035 0.5722
vn -0.5488 0.8342 -0.0544
vn -0.3296 -0.0964 0.9392
vn 0.4505 -0.4656 0.7617
vn 0.8929 0.2129 0.3968
vn 0.7295 0.6354 -0.2531
vn 0.0684 -0.9039 -0.4223
vn 0.5544 -0.1842 -0.8116
vn -0.5438 0.6037 0.5829
vn 0.2579 0.3406 -0.9042
vn 0.9200 0.3278 -0.2147
vn 0.0343 0.9514 0.3061
vn -0.2967 -0.9550 0.0033
vn 0.0433 -0.9910 0.1267
vn -0.0402 0.9425 0.3319
vn 0.6421 -0.0959 0.7606
vn 0.7073 0.0882 0.7014
vn 0.1223 -0.9598 0.2525
vn -0.2376 -0.0033 0.9714
vn 0.1270 -0.3070 0.9432
vn 0.2202 0.8632 0.4543
vn 0.6980 -0.5608 0.4454
vn 0.3111 0.8973 0.3133
vn 0.0473 0.9421 -0.3318
vn -0.1407 0.2018 -0.9693
vn -0.1273 0.9567 0.2619
vn -0.1500 -0.8929 -0.4245
vn -0.4370 -0.1636 -0.8845
vn 0.1964 -0.9668 -0.1635
vn -0.2556 0.7219 -0.6431
vn 0.4905 0.3799 -0.7843
vn 0.3116 0.9039 -0.2932
vn -0.2146 0.9498 -0.2275
vn 0.8864 -0.2096 0.4126
vn -0.0151 -0.0099 0.9998
vn 0.7784 -0.6142 0.1296
vn 0.9541 -0.2812 -0.1030
vn 0.7386 0.6741 0.0002
vn 0.2270 0.7025 0.6745
vn -0.0831 0.6647 0.7425
vn -0.0468 0.0828 0.9955
vn 0.0455 0.9741 0.2214
vn 0.0233 0.9941 -0.1063
vn 0.3383 0.9309 -0.1378
vn 0.1268 0.8913 -0.4353
vn -0.1057 0.9944 0.0023
vn 0.0205 0.5183 0.8549
vn -0.0988 0.8836 0.4577
vn 0.0389 0.9586 -0.2822
vn 0.6534 0.6497 -0.3885
vn 0.6895 0.7237 0.0291
vn 0.6623 0.6722 0.3308
vn 0.6442 0.6920 -0.3256
vn 0.2267 0.4980 -0.8370
vn 0.5108 0.8573 0.0638
vn 0.7916 0.5768 -0.2016
vn -0.0018 0.9507 -0.3100
vn 0.6303 0.7762 -0.0140
vn 0.5190 0.7783 -0.3533
vn 0.0025 0.9443 0.3290
vn 0.2502 0.9678 0.0291
vn 0.3811 0.8529 0.3569
vn 0.6370 0.7685 0.0595
vn 0.1478 0.7343 0.6626
vn -0.0113 0.9974 0.0712
vn -0.0642 0.2442 0.9676
vn -0.2102 0.7471 0.6307
vn -0.2823 0.9539 0.1022
vn -0.0677 0.8526 -0.5182
vn -0.3628 0.9166 -0.1680
vn -0.0723 0.7583 -0.6479
vn -0.0751 0.8603 0.5042
vn 0.0076 0.3927 -0.9196
vn 0.0556 0.9098 0.4113
vn 0.0456 0.1994 0.9788
vn 0.0751 0.5994 0.7969
vn -0.0167 0.9912 -0.1309
vn -0.1326 0.1860 0.9736
vn -0.5347 -0.0080 0.8450
vn -0.0720 -0.0657 0.9952
vn 0.3201 0.3709 0.8718
vn 0.3625 -0.1439 0.9208
vn -0.3781 0.5124 0.7710
vn -0.0083 0.3404 0.9402
vn -0.5596 0.4839 0.6728
vn -0.9681 0.2182 -0.1231
vn -0.4408 0.2977 -0.8468
vn -0.0766 -0.0470 -0.9960
vn 0.0999 0.0098 0.9950
vn 0.0788 -0.3987 -0.9137
vn -0.7906 0.5290 0.3084
vn -0.8656 0.4205 -0.2720
vn -0.6970 0.3490 -0.6264
vn -0.2421 0.9031 0.3547
vn -0.3456 0.9260 -0.1522
vn -0.1521 0.6820 -0.7153
vn 0.2647 0.7639 -0.5886
vn 0.0440 0.9848 0.1680
vn 0.4381 0.1983 -0.8768
vn -0.2601 -0.2274 -0.9384
vn -0.3745 0.0463 -0.9261
vn 0.2135 0.1159 -0.9700
vn 0.4599 0.6142 0.6414
vn 0.3936 0.9193 -0.0042
vn 0.7537 0.6471 0.1148
vn 0.5025 0.0346 0.8639
vn 0.3277 0.6482 0.6873
vn 0.5278 0.1818 -0.8296
vn 0.5879 0.1031 -0.8023
vn 0.7435 0.2320 0.6272
vn 0.6789 0.4687 -0.5651
vn 0.9631 0.2630 0.0565
vn 0.9917 0.0831 0.0980
vn 0.9035 0.1198 -0.4116
vn 0.7496 0.6617 0.0178
vn 0.8215 0.2994 0.4853
vn 0.2062 -0.1319 -0.9696
vn 0.4496 -0.7572 -0.4738
vn 0.6073 -0.1977 -0.7695
vn -0.0066 -0.0166 -0.9998
vn 0.2150 -0.0770 -0.9736
vn 0.3795 0.0469 -0.9240
vn 0.7445 0.0730 -0.6636
vn 0.8892 0.0009 -0.4576
vn 0.6745 -0.2904 -0.6787
vn 0.5198 -0.5234 -0.6752
vn 0.7224 -0.0404 -0.6903
vn 0.5436 -0.5583 -0.6267
vn 0.3190 -0.7407 -0.5912
vn 0.4327 -0.3108 -0.8463
vn -0.1144 -0.6974 -0.7075
vn 0.0396 0.1128 -0.9928
vn 0.7303 0.1937 0.6551
vn 0.8485 -0.1267 0.5137
vn 0.9444 -0.2007 0.2604
vn 0.3388 -0.9403 -0.0340
vn 0.9278 0.3105 0.2070
vn 0.9806 0.1131 -0.1598
vn 0.9644 -0.1856 0.1885
vn 0.8797 -0.0961 -0.4656
vn 0.9628 0.0345 0.2678
vn 0.7167 0.2680 0.6438
vn 0.9505 -0.0960 0.2956
vn 0.1749 -0.2275 -0.9579
vn 0.2735 -0.8580 -0.4348
vn 0.5184 0.0598 -0.8530
vn 0.5284 -0.0902 -0.8442
vn 0.9460 -0.0736 -0.3158
vn 0.9876 -0.1239 0.0962
vn 0.5928 0.0455 -0.8041
vn 0.9243 -0.3087 -0.2245
vn 0.9811 0.0522 -0.1865
vn 0.8979 -0.4263 0.1098
vn 0.6165 -0.7873 -0.0045
vn 0.5648 -0.8248 -0.0281
vn 0.9358 -0.3431 0.0812
vn 0.9489 -0.3027 0.0891
vn 0.8758 -0.4421 -0.1938
vn 0.6864 -0.6352 -0.3541
vn 0.9467 -0.3072 -0.0972
vn 0.8160 -0.5671 -0.1117
vn 0.9629 -0.2545 0.0902
vn 0.7784 -0.0603 0.6249
vn 0.9993 -0.0357 -0.0117
vn 0.9936 -0.1125 0.0061
vn 0.7458 -0.0434 -0.6648
vn 0.8886 -0.3904 0.2407
vn 0.6289 -0.7756 0.0549
vn 0.5062 -0.8353 0.2143
vn 0.4807 -0.8606 0.1685
vn 0.8687 -0.4779 0.1305
vn 0.3717 -0.9274 -0.0424
vn 0.7457 -0.5157 -0.4219
vn 0.0461 -0.2407 -0.9695
vn 0.0395 -0.5099 -0.8593
vn -0.2516 -0.7510 -0.6105
vn -0.2398 -0.7960 -0.5557
vn -0.0415 -0.4965 -0.8670
vn 0.4423 -0.8138 -0.3770
vn 0.3816 0.0331 -0.9237
vn 0.5122 -0.6741 -0.5322
vn 0.3958 -0.4821 -0.7816
vn 0.5816 -0.6160 -0.5313
vn 0.6442 0.1330 -0.7532
vn 0.4442 0.8221 -0.3562
vn 0.6932 0.5001 -0.5190
vn 0.2236 0.8828 -0.4131
vn 0.3539 0.3991 -0.8459
vn -0.2102 0.8755 -0.4350
vn 0.5387 0.8373 0.0930
vn 0.9641 0.0404 0.2625
vn 0.2246 0.8706 0.4377
vn 0.5250 0.7499 0.4026
vn 0.3123 0.9490 0.0440
vn 0.7402 0.6563 0.1461
vn 0.9875 0.0036 0.1577
vn 0.9672 0.2535 -0.0155
vn 0.9910 0.1024 0.0860
vn 0.5772 0.8161 -0.0270
vn 0.9735 0.2119 0.0855
vn 0.8253 0.5629 -0.0436
vn 0.6255 0.7136 -0.3156
vn -0.4577 0.8888 -0.0245
vn 0.8466 0.5312 0.0347
vn 0.9926 0.1156 -0.0377
vn 0.9422 0.1338 -0.3071
vn 0.5853 -0.0439 0.8096
vn -0.0466 0.9310 -0.3620
vn 0.5356 -0.1857 0.8238
vn 0.9932 -0.0632 -0.0978
vn 0.8529 0.4735 0.2200
vn 0.9863 -0.1351 -0.0949
vn 0.8746 0.4659 0.1346
vn 0.5644 0.6620 0.4931
vn 0.6084 0.4343 -0.6642
vn 0.9257 0.3659 -0.0962
vn 0.3384 0.9085 0.2451
vn 0.9600 -0.2309 0.1587
vn 0.8628 0.4612 0.2070
vn 0.0698 0.9941 -0.0836
vn 0.4880 0.8583 0.1589
vn 0.5004 0.8642 -0.0524
vn 0.9414 -0.1698 0.2914
vn 0.9004 0.3981 0.1754
vn 0.8735 0.4869 0.0027
vn 0.9962 -0.0732 0.0464
vn 0.1408 0.4401 -0.8868
vn 0.6993 0.3832 -0.6035
vn 0.9728 0.0046 -0.2316
vn 0.0564 0.4694 -0.8812
vn 0.0555 0.8684 -0.4927
vn 0.4265 0.6396 -0.6395
s 1
usemtl Material
f 4//4 3//3 5//5
f 5//5 2//2 1//1
f 11//11 8//8 5//5
f 7//7 11//11 5//5
f 13//13 12//12 10//10
f 1//1 19//19 20//20
f 11//11 22//22 8//8
f 21//21 23//23 7//7
f 49//49 23//23 21//21
f 13//13 21//21 12//12
f 25//25 49//49 21//21
f 15//15 14//14 26//26
f 27//27 26//26 14//14
f 15//15 28//28 30//30
f 31//31 27//27 15//15
f 29//29 31//31 15//15
f 28//28 27//27 32//32
f 30//30 28//28 32//32
f 15//15 29//29 16//16
f 15//15 30//30 29//29
f 33//33 30//30 35//35
f 31//31 29//29 33//33
f 39//39 38//38 34//34
f 36//36 39//39 34//34
f 20//20 19//19 42//42
f 44//44 42//42 43//43
f 44//44 43//43 46//46
f 43//43 42//42 45//45
f 48//48 22//22 23//23
f 25//25 48//48 49//49
f 51//51 48//48 25//25
f 54//54 50//50 51//51
f 45//45 53//53 285//283
f 51//51 25//25 57//57
f 58//58 51//51 57//57
f 56//56 58//58 57//57
f 56//56 57//57 55//55
f 58//58 56//56 59//59
f 58//58 54//54 51//51
f 60//60 62//62 58//58
f 65//65 64//64 63//63
f 69//69 61//61 64//64
f 67//67 69//69 64//64
f 72//72 71//71 70//70
f 73//73 71//71 72//72
f 71//71 74//74 75//75
f 80//80 79//79 77//77
f 70//70 71//71 78//78
f 79//79 78//78 81//81
f 84//84 81//81 83//83
f 79//79 37//37 39//39
f 40//40 37//37 79//79
f 85//85 38//38 40//40
f 90//90 69//69 67//67
f 79//79 81//81 84//84
f 89//89 91//91 88//88
f 84//84 91//91 89//89
f 91//91 92//92 90//90
f 94//94 96//96 93//93
f 9//9 5//5 1//1
f 10//10 98//98 96//96
f 100//100 101//101 10//10
f 3//3 4//4 7//7
f 97//97 99//99 105//105
f 99//99 104//104 107//107
f 100//100 105//105 106//106
f 105//105 108//108 106//106
f 101//101 100//100 106//106
f 109//109 17//17 34//34
f 34//34 35//35 109//109
f 110//110 109//109 112//112
f 112//112 115//115 113//113
f 113//113 116//116 114//114
f 103//103 20//20 41//41
f 117//117 44//44 47//47
f 108//108 107//107 119//119
f 106//106 108//108 120//120
f 108//108 119//119 121//121
f 120//120 108//108 121//121
f 106//106 120//120 125//125
f 123//123 119//119 118//118
f 122//122 119//119 123//123
f 56//56 127//127 59//59
f 127//127 128//128 59//59
f 126//126 59//59 128//128
f 410//406 124//124 122//122
f 127//127 124//124 410//406
f 127//127 410//406 129//129
f 68//68 65//65 63//63
f 126//126 132//132 133//133
f 126//126 129//129 132//132
f 134//134 130//130 131//131
f 135//135 131//131 133//133
f 131//131 135//135 136//136
f 115//115 86//86 88//88
f 138//138 115//115 88//88
f 137//137 138//138 139//139
f 88//88 68//68 130//130
f 138//138 88//88 141//141
f 142//142 138//138 141//141
f 418//414 134//134 131//131
f 134//134 143//143 141//141
f 141//141 143//143 142//142
f 140//140 421//417 144//144
f 143//143 134//134 418//414
f 421//417 142//142 143//143
f 146//146 36//36 34//34
f 149//149 36//36 150//150
f 148//148 147//147 152//152
f 153//153 151//151 152//152
f 229//228 153//153 152//152
f 154//154 76//76 72//72
f 156//156 70//70 78//78
f 157//157 80//80 77//77
f 72//72 70//70 156//156
f 159//159 156//156 157//157
f 158//158 159//159 157//157
f 160//160 159//159 158//158
f 160//160 155//155 154//154
f 481//477 155//155 160//160
f 158//158 481//477 160//160
f 162//162 481//477 161//161
f 163//163 77//77 150//150
f 77//77 79//79 149//149
f 164//164 168//168 163//163
f 158//158 157//157 166//166
f 166//166 157//157 77//77
f 166//166 163//163 168//168
f 165//165 168//168 164//164
f 165//165 167//167 169//169
f 169//169 171//171 165//165
f 168//168 161//161 166//166
f 161//161 168//168 170//170
f 171//171 170//170 165//165
f 171//171 169//169 180//180
f 184//184 177//177 179//179
f 177//177 184//184 185//185
f 173//173 186//186 176//176
f 175//175 181//181 189//189
f 189//189 173//173 175//175
f 188//188 189//189 190//190
f 189//189 181//181 190//190
f 193//193 188//188 191//191
f 196//196 198//198 191//191
f 200//200 195//195 199//199
f 201//201 200//200 199//199
f 200//200 197//197 191//191
f 207//207 204//204 205//205
f 210//209 209//208 213//212
f 259//258 213//212 212//211
f 212//211 215//214 203//203
f 214//213 213//212 259//258
f 222//221 217//216 220//219
f 225//224 220//219 224//223
f 223//222 220//219 225//224
f 226//225 225//224 224//223
f 227//226 226//225 224//223
f 109//109 110//110 102//102
f 228//227 110//110 114//114
f 228//227 147//147 110//110
f 152//152 147//147 229//228
f 230//229 228//227 137//137
f 137//137 139//139 232//231
f 230//229 232//231 231//230
f 234//233 231//230 139//139
f 167//167 231//230 234//233
f 233//232 169//169 167//167
f 234//233 236//235 167//167
f 139//139 144//144 235//234
f 236//235 234//233 235//234
f 182//182 181//181 185//185
f 188//188 241//240 242//241
f 243//242 188//188 242//241
f 242//241 241//240 244//243
f 245//244 241//240 238//237
f 244//243 241//240 245//244
f 243//242 244//243 247//246
f 247//246 244//243 248//247
f 244//243 241//240 248//247
f 244//243 246//245 249//248
f 248//247 250//249 251//250
f 194//194 247//246 252//251
f 195//195 194//194 199//199
f 199//199 252//251 253//252
f 254//253 252//251 248//247
f 254//253 248//247 256//255
f 257//256 248//247 251//250
f 254//253 256//255 258//257
f 262//261 259//258 261//260
f 259//258 212//211 255//254
f 265//264 262//261 261//260
f 263//262 265//264 261//260
f 214//213 259//258 262//261
f 269//268 263//262 268//267
f 271//270 268//267 270//269
f 216//215 260//259 272//271
f 273//272 260//259 267//266
f 220//219 217//216 272//271
f 275//274 272//271 273//272
f 279//278 275//274 273//272
f 280//279 278//277 282//281
f 282//281 278//277 279//278
f 285//283 286//284 46//46
f 285//283 287//285 286//284
f 289//287 290//288 291//289
f 292//290 53//53 52//52
f 293//291 288//286 53//53
f 293//291 53//53 292//290
f 288//286 293//291 290//288
f 296//294 295//293 293//291
f 295//293 291//289 290//288
f 298//296 62//62 60//60
f 300//298 54//54 62//62
f 300//298 62//62 298//296
f 294//292 292//290 54//54
f 301//299 300//298 298//296
f 298//296 299//297 301//299
f 303//301 302//300 300//298
f 304//302 303//301 300//298
f 305//303 294//292 302//300
f 303//301 306//304 305//303
f 66//66 298//296 60//60
f 299//297 298//296 66//66
f 307//305 308//306 299//297
f 311//309 307//305 299//297
f 309//307 307//305 312//310
f 313//311 312//310 307//305
f 313//311 307//305 311//309
f 313//311 314//312 312//310
f 315//313 75//75 74//74
f 315//313 74//74 73//73
f 316//314 75//75 315//313
f 319//317 318//316 316//314
f 83//83 75//75 321//319
f 75//75 316//314 318//316
f 322//320 318//316 323//321
f 323//321 318//316 319//317
f 332//330 322//320 324//322
f 84//84 83//83 310//308
f 325//323 330//328 310//308
f 332//330 326//324 322//320
f 329//327 328//326 326//324
f 335//333 333//331 329//327
f 324//322 335//333 329//327
f 291//289 337//335 348//346
f 351//349 338//336 294//292
f 342//340 333//331 335//333
f 341//339 333//331 343//341
f 342//340 343//341 333//331
f 334//332 341//339 345//343
f 344//342 343//341 342//340
f 343//341 340//338 346//344
f 339//337 351//349 294//292
f 350//348 349//347 336//334
f 338//336 350//348 336//334
f 353//351 345//343 354//352
f 356//354 354//352 352//350
f 358//356 347//345 348//346
f 360//358 359//357 361//359
f 360//358 362//360 359//357
f 349//347 350//348 337//335
f 364//362 348//346 363//361
f 365//363 364//362 363//361
f 350//348 363//361 348//346
f 366//364 350//348 351//349
f 367//365 366//364 351//349
f 361//359 360//358 365//363
f 360//358 361//359 368//366
f 366//364 360//358 363//361
f 360//358 361//359 371//369
f 372//370 373//371 362//360
f 360//358 371//369 374//372
f 375//373 362//360 373//371
f 371//369 375//373 376//374
f 373//371 376//374 375//373
f 377//375 378//376 376//374
f 381//379 379//377 378//376
f 378//376 379//377 380//378
f 377//375 381//379 378//376
f 382//380 378//376 380//378
f 372//370 360//358 366//364
f 383//381 365//363 385//383
f 385//383 360//358 374//372
f 386//384 372//370 366//364
f 383//381 374//372 382//380
f 387//385 384//382 383//381
f 391//389 383//381 382//380
f 389//387 388//386 387//385
f 389//387 390//388 392//390
f 381//379 380//378 379//377
f 377//375 393//391 381//379
f 396//393 377//375 388//386
f 391//389 382//380 398//395
f 396//393 398//395 393//391
f 398//395 396//393 397//394
f 391//389 398//395 397//394
f 390//388 391//389 397//394
f 390//388 388//386 389//387
f 287//285 117//117 47//47
f 400//396 118//118 117//117
f 289//287 291//289 402//398
f 123//123 118//118 400//396
f 122//122 403//399 404//400
f 122//122 404//400 405//401
f 400//396 289//287 401//397
f 405//401 404//400 406//402
f 406//402 404//400 407//403
f 401//397 408//404 409//405
f 413//409 129//129 412//408
f 410//406 405//401 411//407
f 411//407 412//408 129//129
f 414//410 303//301 411//407
f 411//407 303//301 304//302
f 411//407 304//302 301//299
f 406//402 415//411 405//401
f 415//411 303//301 414//410
f 132//132 129//129 413//409
f 413//409 301//299 308//306
f 135//135 133//133 416//412
f 419//415 135//135 416//412
f 136//136 419//415 420//416
f 314//312 417//413 309//307
f 423//419 143//143 424//420
f 417//413 327//325 424//420
f 417//413 424//420 420//416
f 423//419 424//420 425//421
f 426//422 423//419 425//421
f 327//325 334//332 427//423
f 425//421 427//423 428//424
f 401//397 402//398 408//404
f 407//403 433//429 431//427
f 434//430 306//304 415//411
f 428//424 427//423 436//432
f 428//424 436//432 437//433
f 429//425 428//424 435//431
f 435//431 428//424 437//433
f 430//426 408//404 439//435
f 408//404 347//345 442//438
f 444//440 440//436 441//437
f 431//427 433//429 446//442
f 431//427 447//443 448//444
f 446//442 430//426 439//435
f 439//435 440//436 446//442
f 441//437 440//436 439//435
f 441//437 450//446 443//439
f 447//443 446//442 452//448
f 446//442 444//440 452//448
f 453//449 448//444 447//443
f 456//452 452//448 455//451
f 454//450 456//452 457//453
f 456//452 459//455 458//454
f 460//456 306//304 434//430
f 432//428 460//456 434//430
f 460//456 339//337 306//304
f 449//445 432//428 448//444
f 461//457 449//445 448//444
f 454//450 462//458 448//444
f 462//458 463//459 461//457
f 435//431 437//433 464//460
f 437//433 436//432 464//460
f 465//461 435//431 464//460
f 355//353 464//460 353//351
f 466//462 355//353 357//355
f 347//345 358//356 442//438
f 445//441 467//463 468//464
f 451//447 469//465 449//445
f 467//463 443//439 471//467
f 474//470 471//467 473//469
f 474//470 473//469 475//471
f 364//362 442//438 358//356
f 475//471 473//469 365//363
f 477//473 467//463 471//467
f 476//472 468//464 477//473
f 476//472 477//473 471//467
f 476//472 471//467 474//470
f 469//465 460//456 449//445
f 460//456 365//363 339//337
f 460//456 469//465 475//471
f 470//466 478//474 458//454
f 479//475 76//76 155//155
f 480//476 481//477 483//479
f 324//322 322//320 323//321
f 480//476 323//321 319//317
f 485//481 323//321 480//476
f 172//172 162//162 161//161
f 171//171 487//483 172//172
f 324//322 486//482 489//485
f 484//480 486//482 324//322
f 486//482 490//486 489//485
f 162//162 484//480 482//478
f 488//484 491//487 487//483
f 489//485 335//333 324//322
f 492//488 489//485 490//486
f 178//178 174//174 176//176
f 179//179 174//174 178//178
f 496//492 494//490 178//178
f 495//491 494//490 498//494
f 499//495 495//491 498//494
f 497//493 496//492 178//178
f 487//483 171//171 183//183
f 182//182 487//483 183//183
f 504//500 185//185 503//499
f 501//497 487//483 182//182
f 184//184 495//491 502//498
f 503//499 184//184 502//498
f 499//495 502//498 495//491
f 507//503 505//501 186//186
f 507//503 186//186 187//187
f 508//504 499//495 507//503
f 505//501 506//502 176//176
f 187//187 508//504 507//503
f 506//502 497//493 178//178
f 507//503 509//505 505//501
f 505//501 509//505 506//502
f 509//505 498//494 496//492
f 499//495 498//494 509//505
f 509//505 496//492 506//502
f 198//198 193//193 191//191
f 511//507 508//504 192//192
f 192//192 512//508 511//507
f 515//511 192//192 193//193
f 515//511 193//193 198//198
f 513//509 499//495 508//504
f 512//508 510//506 513//509
f 511//507 512//508 513//509
f 510//506 512//508 514//510
f 516//512 196//196 197//197
f 515//511 198//198 196//196
f 517//513 514//510 515//511
f 516//512 517//513 515//511
f 520//516 202//202 203//203
f 215//214 209//208 206//206
f 207//207 205//205 214//213
f 207//207 528//523 522//518
f 528//523 207//207 214//213
f 527//522 525//520 522//518
f 214//213 218//217 529//524
f 219//218 530//525 218//217
f 222//221 531//526 217//216
f 223//222 532//527 222//221
f 227//226 535//530 226//225
f 536//531 491//487 493//489
f 538//533 342//340 335//333
f 537//532 538//533 492//488
f 490//486 537//532 492//488
f 539//534 344//342 538//533
f 537//532 540//535 538//533
f 541//536 340//338 539//534
f 544//539 545//540 543//538
f 356//354 352//350 545//540
f 544//539 546//541 545//540
f 235//234 144//144 422//418
f 548//543 236//235 547//542
f 549//544 422//418 426//422
f 551//546 426//422 429//425
f 552//547 239//238 236//235
f 240//239 239//238 552//547
f 236//235 548//543 500//496
f 238//237 240//239 555//550
f 548//543 488//484 501//497
f 510//506 553//548 504//500
f 240//239 553//548 555//550
f 557//552 553//548 558//553
f 514//510 558//553 510//506
f 559//554 557//552 558//553
f 559//554 558//553 560//555
f 244//243 249//248 561//556
f 250//249 561//556 565//560
f 561//556 560//555 562//557
f 564//559 561//556 563//558
f 565//560 561//556 564//559
f 256//255 257//256 565//560
f 564//559 256//255 565//560
f 521//517 567//562 518//514
f 563//558 567//562 568//563
f 564//559 563//558 568//563
f 568//563 519//515 566//561
f 562//557 567//562 563//558
f 215//214 519//515 203//203
f 255//254 566//561 569//564
f 261//260 569//564 571//566
f 574//569 569//564 572//567
f 570//565 574//569 572//567
f 529//524 573//568 524//519
f 574//569 571//566 569//564
f 270//269 264//263 571//566
f 270//269 576//571 271//270
f 577//572 570//565 266//265
f 577//572 578//573 574//569
f 577//572 271//270 578//573
f 575//570 267//266 573//568
f 581//576 274//273 575//570
f 531//526 580//575 530//525
f 575//570 529//524 580//575
f 279//278 579//574 583//578
f 583//578 579//574 581//576
f 585//580 580//575 531//526
f 586//581 583//578 581//576
f 586//581 585//580 588//583
f 589//584 282//281 582//577
f 589//584 582//577 584//579
f 590//585 584//579 587//582
f 589//584 584//579 590//585
f 588//583 533//528 535//530
f 591//586 586//581 588//583
f 591//586 587//582 586//581
f 590//585 591//586 535//530
f 551//546 438//434 593//588
f 493//489 542//537 536//531
f 593//588 465//461 594//589
f 465//461 466//462 594//589
f 594//589 546//541 542//537
f 5//5 3//3 7//7
f 4//4 5//5 6//6
f 7//7 4//4 6//6
f 6//6 5//5 9//9
f 10//10 7//7 6//6
f 2//2 5//5 8//8
f 10//10 12//12 7//7
f 25//25 13//13 24//24
f 19//19 1//1 2//2
f 12//12 21//21 7//7
f 7//7 23//23 11//11
f 19//19 2//2 8//8
f 19//19 8//8 22//22
f 23//23 22//22 11//11
f 21//21 13//13 25//25
f 27//27 14//14 15//15
f 15//15 26//26 28//28
f 28//28 26//26 27//27
f 32//32 27//27 31//31
f 18//18 34//34 17//17
f 30//30 33//33 29//29
f 40//40 38//38 37//37
f 38//38 33//33 35//35
f 39//39 37//37 38//38
f 35//35 34//34 38//38
f 30//30 32//32 33//33
f 45//45 42//42 50//50
f 41//41 20//20 42//42
f 41//41 42//42 44//44
f 285//283 46//46 43//43
f 43//43 45//45 285//283
f 19//19 22//22 42//42
f 23//23 49//49 48//48
f 50//50 42//42 22//22
f 48//48 50//50 22//22
f 45//45 52//52 53//53
f 51//51 50//50 48//48
f 82//82 81//81 71//71
f 54//54 52//52 50//50
f 24//24 55//55 25//25
f 57//57 25//25 55//55
f 59//59 60//60 58//58
f 60//60 59//59 61//61
f 58//58 62//62 54//54
f 63//63 61//61 59//59
f 63//63 64//64 61//61
f 61//61 66//66 60//60
f 31//31 33//33 32//32
f 67//67 64//64 68//68
f 69//69 90//90 61//61
f 90//90 66//66 61//61
f 90//90 310//308 66//66
f 73//73 74//74 71//71
f 80//80 78//78 79//79
f 78//78 71//71 81//81
f 82//82 71//71 75//75
f 83//83 82//82 75//75
f 149//149 79//79 39//39
f 35//35 33//33 86//86
f 33//33 38//38 85//85
f 40//40 79//79 87//87
f 85//85 86//86 33//33
f 85//85 88//88 86//86
f 85//85 89//89 88//88
f 89//89 85//85 40//40
f 40//40 87//87 89//89
f 87//87 79//79 89//89
f 91//91 90//90 67//67
f 88//88 91//91 67//67
f 89//89 79//79 84//84
f 91//91 84//84 90//90
f 90//90 84//84 310//308
f 95//95 94//94 9//9
f 94//94 97//97 96//96
f 94//94 96//96 9//9
f 100//100 96//96 97//97
f 96//96 98//98 9//9
f 95//95 97//97 94//94
f 9//9 1//1 99//99
f 9//9 99//99 95//95
f 97//97 95//95 99//99
f 9//9 98//98 6//6
f 10//10 6//6 98//98
f 99//99 1//1 104//104
f 13//13 10//10 101//101
f 24//24 101//101 106//106
f 18//18 17//17 102//102
f 103//103 1//1 20//20
f 100//100 97//97 105//105
f 104//104 1//1 103//103
f 107//107 104//104 103//103
f 108//108 99//99 107//107
f 105//105 99//99 108//108
f 109//109 102//102 17//17
f 35//35 111//111 112//112
f 112//112 109//109 35//35
f 113//113 114//114 112//112
f 114//114 110//110 112//112
f 115//115 111//111 35//35
f 112//112 111//111 115//115
f 122//122 120//120 121//121
f 41//41 44//44 117//117
f 119//119 41//41 117//117
f 44//44 46//46 47//47
f 119//119 117//117 118//118
f 41//41 119//119 103//103
f 107//107 103//103 119//119
f 122//122 121//121 119//119
f 126//126 131//131 130//130
f 106//106 55//55 24//24
f 106//106 125//125 55//55
f 127//127 56//56 55//55
f 127//127 55//55 125//125
f 127//127 125//125 120//120
f 126//126 63//63 59//59
f 124//124 127//127 120//120
f 127//127 129//129 128//128
f 126//126 128//128 129//129
f 126//126 130//130 63//63
f 115//115 116//116 113//113
f 131//131 126//126 133//133
f 68//68 64//64 65//65
f 130//130 68//68 63//63
f 115//115 35//35 86//86
f 137//137 114//114 116//116
f 67//67 68//68 88//88
f 138//138 137//137 116//116
f 141//141 88//88 130//130
f 139//139 138//138 140//140
f 140//140 138//138 142//142
f 34//34 18//18 146//146
f 130//130 134//134 141//141
f 421//417 140//140 142//142
f 144//144 139//139 140//140
f 418//414 131//131 136//136
f 145//145 146//146 18//18
f 146//146 147//147 148//148
f 146//146 148//148 36//36
f 159//159 154//154 72//72
f 36//36 149//149 39//39
f 148//148 150//150 36//36
f 151//151 150//150 148//148
f 152//152 151//151 148//148
f 150//150 77//77 149//149
f 72//72 76//76 73//73
f 154//154 155//155 76//76
f 156//156 78//78 80//80
f 157//157 156//156 80//80
f 159//159 72//72 156//156
f 150//150 164//164 163//163
f 161//161 481//477 158//158
f 164//164 153//153 165//165
f 173//173 176//176 174//174
f 166//166 77//77 163//163
f 167//167 165//165 153//153
f 165//165 170//170 168//168
f 166//166 161//161 158//158
f 171//171 161//161 170//170
f 171//171 172//172 161//161
f 175//175 173//173 174//174
f 179//179 177//177 174//174
f 175//175 174//174 177//177
f 181//181 175//175 177//177
f 180//180 182//182 171//171
f 182//182 183//183 171//171
f 181//181 177//177 185//185
f 173//173 189//189 186//186
f 187//187 186//186 189//189
f 210//209 211//210 204//204
f 192//192 189//189 188//188
f 193//193 192//192 188//188
f 189//189 192//192 187//187
f 195//195 191//191 194//194
f 197//197 196//196 191//191
f 195//195 200//200 191//191
f 200//200 202//202 197//197
f 203//203 200//200 201//201
f 203//203 202//202 200//200
f 210//209 205//205 211//210
f 205//205 204//204 211//210
f 204//204 209//208 210//209
f 213//212 209//208 212//211
f 214//213 205//205 213//212
f 219//218 218//217 217//216
f 212//211 209//208 215//214
f 217//216 218//217 216//215
f 218//217 214//213 216//215
f 102//102 147//147 145//145
f 220//219 223//222 222//221
f 224//223 220//219 221//220
f 102//102 145//145 18//18
f 230//229 231//230 228//227
f 228//227 229//228 147//147
f 228//227 114//114 137//137
f 228//227 167//167 229//228
f 233//232 180//180 169//169
f 229//228 167//167 153//153
f 228//227 231//230 167//167
f 230//229 137//137 232//231
f 231//230 232//231 139//139
f 167//167 236//235 233//232
f 235//234 234//233 139//139
f 236//235 239//238 180//180
f 180//180 233//232 236//235
f 180//180 239//238 182//182
f 237//236 182//182 239//238
f 190//190 241//240 188//188
f 238//237 237//236 239//238
f 240//239 238//237 239//238
f 190//190 181//181 237//236
f 190//190 237//236 238//237
f 201//201 255//254 203//203
f 246//245 244//243 245//244
f 243//242 242//241 244//243
f 191//191 188//188 243//242
f 194//194 191//191 243//242
f 243//242 247//246 194//194
f 250//249 248//247 244//243
f 199//199 194//194 252//251
f 252//251 247//246 248//247
f 254//253 253//252 252//251
f 253//252 255//254 199//199
f 254//253 255//254 253//252
f 256//255 248//247 257//256
f 255//254 254//253 258//257
f 263//262 261//260 264//263
f 260//259 216//215 262//261
f 212//211 203//203 255//254
f 216//215 214//213 262//261
f 261//260 259//258 255//254
f 270//269 268//267 264//263
f 263//262 266//265 265//264
f 267//266 260//259 262//261
f 267//266 262//261 265//264
f 266//265 267//266 265//264
f 268//267 263//262 264//263
f 220//219 275//274 277//276
f 269//268 266//265 263//262
f 269//268 268//267 271//270
f 272//271 260//259 273//272
f 272//271 217//216 216//215
f 273//272 267//266 274//273
f 272//271 275//274 220//219
f 276//275 277//276 275//274
f 277//276 276//275 280//279
f 278//277 276//275 275//274
f 278//277 275//274 279//278
f 221//220 220//219 277//276
f 221//220 281//280 224//223
f 47//47 286//284 287//285
f 281//280 277//276 280//279
f 280//279 224//223 281//280
f 278//277 280//279 276//275
f 280//279 282//281 224//223
f 282//281 227//226 224//223
f 589//584 282//281 283//282
f 285//283 288//286 290//288
f 287//285 285//283 290//288
f 289//287 287//285 290//288
f 54//54 292//290 52//52
f 288//286 285//283 53//53
f 292//290 296//294 293//291
f 292//290 294//292 296//294
f 293//291 295//293 290//288
f 294//292 295//293 296//294
f 294//292 297//295 295//293
f 54//54 300//298 294//292
f 300//298 302//300 294//292
f 66//66 311//309 299//297
f 300//298 301//299 304//302
f 302//300 303//301 305//303
f 308//306 301//299 299//297
f 309//307 308//306 307//305
f 73//73 317//315 315//313
f 314//312 309//307 312//310
f 321//319 326//324 310//308
f 315//313 317//315 316//314
f 317//315 320//318 316//314
f 320//318 319//317 316//314
f 321//319 75//75 318//316
f 322//320 321//319 318//316
f 310//308 83//83 321//319
f 330//328 325//323 327//325
f 325//323 310//308 326//324
f 326//324 328//326 325//323
f 328//326 327//325 325//323
f 330//328 313//311 311//309
f 310//308 330//328 311//309
f 327//325 331//329 330//328
f 313//311 330//328 331//329
f 322//320 326//324 321//319
f 327//325 328//326 333//331
f 332//330 329//327 326//324
f 329//327 333//331 328//326
f 324//322 329//327 332//330
f 340//338 343//341 344//342
f 334//332 327//325 333//331
f 297//295 336//334 295//293
f 295//293 337//335 291//289
f 338//336 336//334 297//295
f 294//292 338//336 297//295
f 349//347 295//293 336//334
f 305//303 339//337 294//292
f 341//339 334//332 333//331
f 341//339 343//341 345//343
f 343//341 346//344 345//343
f 363//361 368//366 365//363
f 347//345 291//289 348//346
f 295//293 349//347 337//335
f 351//349 350//348 338//336
f 306//304 339//337 305//303
f 346//344 340//338 352//350
f 354//352 345//343 346//344
f 346//344 352//350 354//352
f 355//353 353//351 354//352
f 354//352 356//354 355//353
f 356//354 357//355 355//353
f 337//335 350//348 348//346
f 339//337 367//365 351//349
f 366//364 363//361 350//348
f 363//361 360//358 368//366
f 362//360 360//358 372//370
f 367//365 369//367 366//364
f 365//363 369//367 367//365
f 365//363 368//366 361//359
f 339//337 365//363 367//365
f 361//359 359//357 371//369
f 359//357 362//360 375//373
f 371//369 359//357 375//373
f 373//371 377//375 376//374
f 374//372 371//369 376//374
f 383//381 369//367 365//363
f 378//376 374//372 376//374
f 382//380 374//372 378//376
f 385//383 365//363 360//358
f 369//367 384//382 366//364
f 384//382 386//384 366//364
f 383//381 385//383 374//372
f 386//384 373//371 372//370
f 384//382 387//385 386//384
f 391//389 387//385 383//381
f 386//384 388//386 373//371
f 387//385 388//386 386//384
f 388//386 377//375 373//371
f 393//391 398//395 382//380
f 389//387 387//385 390//388
f 382//380 380//378 381//379
f 382//380 381//379 393//391
f 395//392 394//392 393//391
f 396//393 393//391 377//375
f 388//386 390//388 397//394
f 388//386 397//394 396//393
f 123//123 403//399 122//122
f 400//396 117//117 287//285
f 400//396 287//285 289//287
f 401//397 289//287 402//398
f 401//397 403//399 400//396
f 405//401 414//410 411//407
f 404//400 403//399 407//403
f 409//405 407//403 401//397
f 411//407 129//129 410//406
f 405//401 410//406 122//122
f 411//407 301//299 412//408
f 414//410 405//401 415//411
f 306//304 303//301 415//411
f 413//409 412//408 301//299
f 309//307 413//409 308//306
f 416//412 133//133 132//132
f 413//409 416//412 132//132
f 417//413 416//412 413//409
f 407//403 432//428 406//402
f 136//136 135//135 419//415
f 419//415 416//412 417//413
f 420//416 419//415 417//413
f 313//311 417//413 314//312
f 422//418 144//144 421//417
f 143//143 418//414 420//416
f 423//419 421//417 143//143
f 418//414 136//136 420//416
f 420//416 424//420 143//143
f 423//419 422//418 421//417
f 425//421 424//420 327//325
f 426//422 422//418 423//419
f 417//413 331//329 327//325
f 331//329 417//413 313//311
f 426//422 425//421 428//424
f 427//423 425//421 327//325
f 429//425 426//422 428//424
f 406//402 434//430 415//411
f 407//403 409//405 433//429
f 433//429 409//405 408//404
f 345//343 427//423 334//332
f 430//426 433//429 408//404
f 438//434 429//425 435//431
f 436//432 345//343 353//351
f 465//461 438//434 435//431
f 402//398 291//289 347//345
f 408//404 402//398 347//345
f 439//435 408//404 442//438
f 445//441 444//440 441//437
f 462//458 454//450 457//453
f 447//443 431//427 446//442
f 448//444 432//428 431//427
f 441//437 439//435 450//446
f 450//446 439//435 442//438
f 453//449 447//443 452//448
f 446//442 440//436 444//440
f 454//450 448//444 453//449
f 455//451 452//448 444//440
f 453//449 452//448 456//452
f 454//450 453//449 456//452
f 459//455 456//452 455//451
f 457//453 456//452 458//454
f 459//455 455//451 444//440
f 462//458 461//457 448//444
f 449//445 460//456 432//428
f 461//457 478//474 449//445
f 461//457 463//459 478//474
f 478//474 451//447 449//445
f 457//453 463//459 462//458
f 442//438 471//467 450//446
f 464//460 436//432 353//351
f 466//462 465//461 464//460
f 466//462 464//460 355//353
f 467//463 441//437 443//439
f 445//441 441//437 467//463
f 444//440 445//441 468//464
f 471//467 443//439 450//446
f 442//438 364//362 471//467
f 469//465 470//466 475//471
f 470//466 472//468 475//471
f 364//362 358//356 348//346
f 475//471 472//468 474//470
f 460//456 475//471 365//363
f 468//464 459//455 444//440
f 473//469 471//467 364//362
f 473//469 364//362 365//363
f 476//472 472//468 458//454
f 476//472 458//454 459//455
f 467//463 477//473 468//464
f 469//465 478//474 470//466
f 472//468 476//472 474//470
f 483//479 482//478 484//480
f 463//459 458//454 478//474
f 458//454 472//468 470//466
f 370//368 466//462 357//355
f 76//76 479//475 317//315
f 480//476 479//475 155//155
f 479//475 320//318 317//315
f 479//475 319//317 320//318
f 479//475 480//476 319//317
f 481//477 162//162 482//478
f 482//478 483//479 481//477
f 481//477 480//476 155//155
f 483//479 485//481 480//476
f 323//321 485//481 324//322
f 483//479 484//480 485//481
f 162//162 486//482 484//480
f 172//172 486//482 162//162
f 487//483 486//482 172//172
f 494//490 495//491 179//179
f 486//482 491//487 490//486
f 487//483 491//487 486//482
f 484//480 324//322 485//481
f 489//485 492//488 335//333
f 178//178 494//490 179//179
f 498//494 494//490 496//492
f 500//496 182//182 185//185
f 178//178 176//176 506//502
f 184//184 179//179 495//491
f 503//499 185//185 184//184
f 487//483 501//497 488//484
f 502//498 504//500 503//499
f 505//501 176//176 186//186
f 499//495 509//505 507//503
f 497//493 506//502 496//492
f 508//504 187//187 192//192
f 516//512 521//517 518//514
f 513//509 502//498 499//495
f 513//509 510//506 502//498
f 510//506 504//500 502//498
f 508//504 511//507 513//509
f 192//192 514//510 512//508
f 192//192 515//511 514//510
f 516//512 515//511 196//196
f 517//513 560//555 514//510
f 516//512 518//514 517//513
f 202//202 516//512 197//197
f 203//203 519//515 520//516
f 520//516 516//512 202//202
f 207//207 206//206 204//204
f 207//207 522//518 206//206
f 206//206 209//208 204//204
f 206//206 525//520 215//214
f 214//213 524//519 527//522
f 214//213 527//522 528//523
f 527//522 526//521 215//214
f 223//222 225//224 534//529
f 524//519 526//521 527//522
f 524//519 214//213 529//524
f 525//520 206//206 522//518
f 527//522 215//214 525//520
f 527//522 522//518 528//523
f 217//216 531//526 219//218
f 218//217 530//525 529//524
f 530//525 219//218 531//526
f 222//221 532//527 531//526
f 533//528 531//526 532//527
f 532//527 535//530 533//528
f 226//225 534//529 225//224
f 223//222 534//529 532//527
f 534//529 535//530 532//527
f 226//225 535//530 534//529
f 537//532 543//538 540//535
f 492//488 538//533 335//333
f 491//487 536//531 490//486
f 538//533 344//342 342//340
f 536//531 537//532 490//486
f 539//534 340//338 344//342
f 540//535 539//534 538//533
f 540//535 541//536 539//534
f 540//535 543//538 541//536
f 536//531 544//539 537//532
f 541//536 352//350 340//338
f 543//538 352//350 541//536
f 488//484 550//545 491//487
f 543//538 545//540 352//350
f 544//539 542//537 546//541
f 545//540 357//355 356//354
f 546//541 370//368 545//540
f 370//368 357//355 545//540
f 547//542 235//234 422//418
f 547//542 236//235 235//234
f 547//542 422//418 549//544
f 547//542 550//545 548//543
f 547//542 549//544 550//545
f 551//546 549//544 426//422
f 493//489 491//487 550//545
f 504//500 553//548 500//496
f 500//496 501//497 182//182
f 552//547 236//235 500//496
f 500//496 185//185 504//500
f 500//496 240//239 552//547
f 501//497 500//496 548//543
f 557//552 561//556 556//551
f 553//548 240//239 500//496
f 245//244 238//237 554//549
f 554//549 238//237 555//550
f 556//551 246//245 245//244
f 553//548 557//552 555//550
f 557//552 554//549 555//550
f 245//244 554//549 557//552
f 556//551 245//244 557//552
f 553//548 510//506 558//553
f 560//555 558//553 514//510
f 556//551 249//248 246//245
f 244//243 561//556 250//249
f 561//556 249//248 556//551
f 559//554 561//556 557//552
f 517//513 562//557 560//555
f 258//257 564//559 566//561
f 563//558 561//556 562//557
f 565//560 257//256 251//250
f 565//560 251//250 250//249
f 564//559 258//257 256//255
f 521//517 568//563 567//562
f 519//515 568//563 520//516
f 568//563 566//561 564//559
f 518//514 567//562 562//557
f 568//563 521//517 520//516
f 566//561 255//254 258//257
f 264//263 261//260 571//566
f 261//260 255//254 569//564
f 267//266 266//265 570//565
f 566//561 572//567 569//564
f 526//521 519//515 215//214
f 267//266 572//567 526//521
f 566//561 519//515 526//521
f 573//568 526//521 524//519
f 573//568 267//266 526//521
f 571//566 576//571 270//269
f 269//268 577//572 266//265
f 269//268 271//270 577//572
f 571//566 578//573 576//571
f 271//270 576//571 578//573
f 570//565 577//572 574//569
f 273//272 579//574 279//278
f 579//574 273//272 274//273
f 529//524 575//570 573//568
f 530//525 580//575 529//524
f 274//273 267//266 575//570
f 579//574 274//273 581//576
f 580//575 581//576 575//570
f 279//278 584//579 582//577
f 581//576 585//580 586//581
f 583//578 587//582 584//579
f 592//587 551//546 593//588
f 585//580 531//526 533//528
f 588//583 585//580 533//528
f 282//281 279//278 582//577
f 589//584 227//226 282//281
f 227//226 589//584 590//585
f 535//530 591//586 588//583
f 591//586 590//585 587//582
f 227//226 590//585 535//530
f 551//546 429//425 438//434
f 550//545 592//587 493//489
f 549//544 592//587 550//545
f 593//588 438//434 465//461
f 592//587 542//537 493//489
f 592//587 594//589 542//537
f 594//589 592//587 593//588
f 594//589 466//462 546//541
f 466//462 370//368 546//541
f 45//45 50//50 52//52
f 82//82 83//83 81//81
f 100//100 10//10 96//96
f 24//24 13//13 101//101
f 122//122 124//124 120//120
f 115//115 138//138 116//116
f 145//145 147//147 146//146
f 159//159 160//160 154//154
f 150//150 151//151 164//164
f 164//164 151//151 153//153
f 210//209 213//212 205//205
f 102//102 110//110 147//147
f 237//236 181//181 182//182
f 190//190 238//237 241//240
f 201//201 199//199 255//254
f 221//220 277//276 281//280
f 47//47 46//46 286//284
f 66//66 310//308 311//309
f 73//73 76//76 317//315
f 383//381 384//382 369//367
f 391//389 390//388 387//385
f 123//123 400//396 403//399
f 401//397 407//403 403//399
f 309//307 417//413 413//409
f 407//403 431//427 432//428
f 406//402 432//428 434//430
f 345//343 436//432 427//423
f 430//426 446//442 433//429
f 457//453 458//454 463//459
f 468//464 476//472 459//455
f 469//465 451//447 478//474
f 516//512 520//516 521//517
f 537//532 544//539 543//538
f 536//531 542//537 544//539
f 488//484 548//543 550//545
f 559//554 560//555 561//556
f 517//513 518//514 562//557
f 566//561 526//521 572//567
f 267//266 570//565 572//567
f 571//566 574//569 578//573
f 279//278 583//578 584//579
f 581//576 580//575 585//580
f 583//578 586//581 587//582
f 592//587 549//544 551//546
l 399 397
l 283 284
